<svg width="20" height="32" viewBox="0 0 20 32" fill="none" xmlns="http://www.w3.org/2000/svg">
<mask id="path-1-inside-1_1_8" fill="white">
<path d="M15 5C15 7.76142 12.7614 10 10 10C7.23858 10 5 7.76142 5 5C5 2.23858 7.23858 0 10 0C12.7614 0 15 2.23858 15 5Z"/>
<path d="M0 22C0 16.4772 4.47715 12 10 12C15.5228 12 20 16.4772 20 22V32H0V22Z"/>
</mask>
<path d="M15 5C15 7.76142 12.7614 10 10 10C7.23858 10 5 7.76142 5 5C5 2.23858 7.23858 0 10 0C12.7614 0 15 2.23858 15 5Z" fill="white"/>
<path d="M0 22C0 16.4772 4.47715 12 10 12C15.5228 12 20 16.4772 20 22V32H0V22Z" fill="white"/>
<path d="M20 32V33H21V32H20ZM0 32H-1V33H0V32ZM14 5C14 7.20914 12.2091 9 10 9V11C13.3137 11 16 8.31371 16 5H14ZM10 9C7.79086 9 6 7.20914 6 5H4C4 8.31371 6.68629 11 10 11V9ZM6 5C6 2.79086 7.79086 1 10 1V-1C6.68629 -1 4 1.68629 4 5H6ZM10 1C12.2091 1 14 2.79086 14 5H16C16 1.68629 13.3137 -1 10 -1V1ZM19 22V32H21V22H19ZM20 31H0V33H20V31ZM1 32V22H-1V32H1ZM10 13C14.9706 13 19 17.0294 19 22H21C21 15.9249 16.0751 11 10 11V13ZM10 11C3.92487 11 -1 15.9249 -1 22H1C1 17.0294 5.02944 13 10 13V11Z" fill="black" mask="url(#path-1-inside-1_1_8)"/>
</svg>
