<svg width="44" height="32" viewBox="0 0 44 32" fill="none" xmlns="http://www.w3.org/2000/svg">
<path d="M29.5 8V20.5H14.5V8C14.5 3.85786 17.8579 0.5 22 0.5C26.1421 0.5 29.5 3.85786 29.5 8Z" fill="white" stroke="black"/>
<rect x="0.5" y="19.5" width="43" height="12" fill="white" stroke="black"/>
<path d="M31.5 20V29.5H12.5V20C12.5 14.7533 16.7533 10.5 22 10.5C27.2467 10.5 31.5 14.7533 31.5 20Z" fill="white" stroke="black"/>
<path d="M4.75586 26.8516L5.93359 25.2344L4.16406 24.707L4.43945 23.8281L6.20898 24.4785L6.15625 22.4629H7.04688L6.98828 24.5137L8.73438 23.8633L9.00391 24.7598L7.20508 25.293L8.35938 26.8809L7.63281 27.4258L6.54883 25.7383L5.48828 27.3848L4.75586 26.8516Z" fill="black"/>
<path d="M34.7559 26.8516L35.9336 25.2344L34.1641 24.707L34.4395 23.8281L36.209 24.4785L36.1562 22.4629H37.0469L36.9883 24.5137L38.7344 23.8633L39.0039 24.7598L37.2051 25.293L38.3594 26.8809L37.6328 27.4258L36.5488 25.7383L35.4883 27.3848L34.7559 26.8516Z" fill="black"/>
</svg>
