<svg width="20" height="18" viewBox="0 0 20 18" fill="none" xmlns="http://www.w3.org/2000/svg">
<path d="M13.1364 4.13636V9.84375H6.86364V4.13636C6.86364 2.4042 8.26783 1 10 1C11.7322 1 13.1364 2.4042 13.1364 4.13636Z" fill="white" stroke="black"/>
<rect x="0.5" y="12.4062" width="19" height="5.09375" fill="white" stroke="black"/>
<path d="M12.3779 15.9258L12.9668 15.1172L12.082 14.8535L12.2197 14.4141L13.1045 14.7393L13.0781 13.7314H13.5234L13.4941 14.7568L14.3672 14.4316L14.502 14.8799L13.6025 15.1465L14.1797 15.9404L13.8164 16.2129L13.2744 15.3691L12.7441 16.1924L12.3779 15.9258Z" fill="black"/>
<path d="M16.3779 15.9258L16.9668 15.1172L16.082 14.8535L16.2197 14.4141L17.1045 14.7393L17.0781 13.7314H17.5234L17.4941 14.7568L18.3672 14.4316L18.502 14.8799L17.6025 15.1465L18.1797 15.9404L17.8164 16.2129L17.2744 15.3691L16.7441 16.1924L16.3779 15.9258Z" fill="black"/>
<path d="M2.37793 15.9258L2.9668 15.1172L2.08203 14.8535L2.21973 14.4141L3.10449 14.7393L3.07812 13.7314H3.52344L3.49414 14.7568L4.36719 14.4316L4.50195 14.8799L3.60254 15.1465L4.17969 15.9404L3.81641 16.2129L3.27441 15.3691L2.74414 16.1924L2.37793 15.9258Z" fill="black"/>
<path d="M6.37793 15.9258L6.9668 15.1172L6.08203 14.8535L6.21973 14.4141L7.10449 14.7393L7.07812 13.7314H7.52344L7.49414 14.7568L8.36719 14.4316L8.50195 14.8799L7.60254 15.1465L8.17969 15.9404L7.81641 16.2129L7.27441 15.3691L6.74414 16.1924L6.37793 15.9258Z" fill="black"/>
<path d="M14.0455 10.483V14.8125H5.95454V10.483C5.95454 8.24871 7.76576 6.4375 10 6.4375C12.2342 6.4375 14.0455 8.24871 14.0455 10.483Z" fill="white" stroke="black"/>
</svg>
